# This file uses inches as units for non-parametric coordinates.

mtllib Texture_Chair.mtl
g default
v -8.156319 -0.226328 8.054209
v -5.983207 -0.226328 8.054209
v -8.156319 17.298857 8.054209
v -5.983207 17.298857 8.054209
v -8.156319 17.298857 6.614876
v -5.983207 17.298857 6.614876
v -8.156319 -0.226328 6.614876
v -5.983207 -0.226328 6.614876
v -5.983207 14.869160 6.614876
v 5.784328 14.869160 6.614876
v -5.983207 17.298855 6.614875
v 5.784328 17.298855 6.614875
v -5.983207 17.298855 -7.031549
v 5.784328 17.298855 -7.031549
v -5.983207 14.869160 -7.363219
v 5.784328 14.869160 -7.363219
v 5.778502 -0.226328 -9.326086
v 7.952742 -0.226328 -9.326086
v 5.778502 17.298855 -7.031549
v 7.952742 17.298855 -7.031549
v 5.778501 17.298855 -8.470882
v 7.952741 17.298855 -8.470882
v 5.778501 -0.226328 -10.765420
v 7.952741 -0.226328 -10.765420
v 5.778502 19.166416 -6.776817
v 7.952742 19.166416 -6.776817
v 7.952741 19.166416 -8.216150
v 5.778501 19.166416 -8.216150
v 5.778502 38.615147 -11.097908
v 7.952742 38.615147 -11.097908
v 7.952741 38.351418 -12.512874
v 5.778501 38.351418 -12.512874
v -5.771444 26.231897 -8.379456
v 5.771444 26.231897 -8.379456
v -5.771444 28.602564 -8.869827
v 5.771444 28.602564 -8.869827
v -5.771444 28.602564 -10.300037
v 5.771444 28.602564 -10.300037
v -5.771444 26.231897 -9.783857
v 5.771444 26.231897 -9.783857
v -7.952740 -0.226328 -9.326086
v -5.778500 -0.226328 -9.326086
v -7.952740 17.298855 -7.031549
v -5.778500 17.298855 -7.031549
v -7.952741 17.298855 -8.470882
v -5.778501 17.298855 -8.470882
v -7.952741 -0.226328 -10.765420
v -5.778501 -0.226328 -10.765420
v -7.952740 19.166416 -6.776817
v -5.778500 19.166416 -6.776817
v -5.778501 19.166416 -8.216150
v -7.952741 19.166416 -8.216150
v -7.952740 38.615147 -11.097908
v -5.778500 38.615147 -11.097908
v -5.778501 38.351418 -12.512874
v -7.952741 38.351418 -12.512874
v 5.778286 -0.226328 8.054209
v 7.951397 -0.226328 8.054209
v 5.778286 17.298857 8.054209
v 7.951397 17.298857 8.054209
v 5.778286 17.298857 6.614876
v 7.951397 17.298857 6.614876
v 5.778286 -0.226328 6.614876
v 7.951397 -0.226328 6.614876
v -5.771444 33.989738 -10.088398
v 5.771444 33.989738 -10.088398
v -5.771444 36.360405 -10.593964
v 5.771444 36.360405 -10.593964
v -5.771444 36.360405 -12.050642
v 5.771444 36.360405 -12.050642
v -5.771444 33.989738 -11.541185
v 5.771444 33.989738 -11.541185
v -8.134428 17.298855 8.066729
v 7.931229 17.298855 8.066729
v -8.134428 18.433277 8.066729
v 7.931229 18.433277 8.066729
v -8.134428 18.433277 -6.792422
v 7.931229 18.433277 -6.792422
v -8.134428 17.298855 -7.029578
v 7.931229 17.298855 -7.029578
v 8.377497 17.802313 8.404984
v -8.580697 17.802313 8.404984
v -8.580697 17.802313 -6.924329
v 8.377497 17.802313 -6.924329
v 8.222205 18.151203 8.285600
v -8.425406 18.151203 8.285600
v -8.425406 18.151203 -6.851392
v 8.222205 18.151203 -6.851392
v 8.217593 17.518784 8.285600
v -8.420794 17.518784 8.285600
v -8.420794 17.518784 -6.983601
v 8.217593 17.518784 -6.983601
v 5.691682 3.898794 6.614876
v 7.865922 3.898794 6.614876
v 5.691682 5.210187 6.614876
v 7.865922 5.210187 6.614876
v 5.691682 5.210187 -8.604321
v 7.865922 5.210187 -8.604321
v 5.691682 3.898795 -8.775267
v 7.865922 3.898795 -8.775267
v -7.866380 3.898794 6.614876
v -5.692140 3.898794 6.614876
v -7.866380 5.210187 6.614876
v -5.692140 5.210187 6.614876
v -7.866380 5.210187 -8.604321
v -5.692140 5.210187 -8.604321
v -7.866380 3.898795 -8.775267
v -5.692140 3.898795 -8.775267
vt 0.108849 0.045976
vt 0.150595 0.045599
vt 0.153639 0.382265
vt 0.111892 0.382642
vt 0.181289 0.382015
vt 0.084242 0.382892
vt 0.178245 0.045349
vt 0.108599 0.018326
vt 0.039452 0.046604
vt 0.150345 0.017949
vt 0.081199 0.046226
vt 0.153889 0.409915
vt 0.042495 0.383269
vt 0.112142 0.410292
vt 0.316265 0.662086
vt 0.066272 0.660174
vt 0.066673 0.607784
vt 0.316666 0.609695
vt 0.313997 0.958482
vt 0.064004 0.956569
vt 0.064359 0.910166
vt 0.314352 0.912079
vt 0.011969 0.909766
vt 0.013882 0.659773
vt 0.368655 0.662488
vt 0.366742 0.912480
vt 0.894292 0.053783
vt 0.927938 0.053440
vt 0.930514 0.325936
vt 0.896687 0.326250
vt 0.902032 0.659366
vt 0.935746 0.658806
vt 0.936035 0.681063
vt 0.902414 0.681576
vt 0.986090 0.323791
vt 0.952549 0.323637
vt 0.949978 0.050340
vt 0.983599 0.050015
vt 0.894067 0.031550
vt 0.927677 0.031203
vt 0.872217 0.051130
vt 0.874601 0.324185
vt 0.930713 0.352475
vt 0.897523 0.353047
vt 0.952425 0.354901
vt 0.986029 0.354259
vt 0.875902 0.356522
vt 0.957973 0.659170
vt 0.991556 0.658562
vt 0.879817 0.660390
vt 0.317164 0.455757
vt 0.504719 0.457061
vt 0.504446 0.496396
vt 0.316891 0.495093
vt 0.504285 0.519635
vt 0.316729 0.518332
vt 0.504011 0.559057
vt 0.316456 0.557754
vt 0.317323 0.432938
vt 0.504878 0.434241
vt 0.527034 0.461838
vt 0.527171 0.501261
vt 0.294786 0.460225
vt 0.294101 0.499642
vt 0.762213 0.038269
vt 0.796003 0.038323
vt 0.795357 0.311982
vt 0.761385 0.311897
vt 0.762801 0.646461
vt 0.796661 0.646298
vt 0.796687 0.668652
vt 0.762921 0.668768
vt 0.851189 0.310488
vt 0.817510 0.309935
vt 0.818170 0.035472
vt 0.851935 0.035545
vt 0.762250 0.015941
vt 0.796004 0.015990
vt 0.740077 0.035343
vt 0.739232 0.309561
vt 0.795242 0.338635
vt 0.761907 0.338815
vt 0.817015 0.341328
vt 0.850767 0.341082
vt 0.740155 0.342048
vt 0.818977 0.646928
vt 0.852707 0.646716
vt 0.740481 0.647225
vt 0.296225 0.063035
vt 0.334832 0.062702
vt 0.337516 0.374051
vt 0.298909 0.374384
vt 0.337737 0.399622
vt 0.299130 0.399955
vt 0.273338 0.374605
vt 0.234731 0.374938
vt 0.232047 0.063588
vt 0.270654 0.063255
vt 0.296005 0.037464
vt 0.334612 0.037131
vt 0.360403 0.062482
vt 0.363087 0.373831
vt 0.066018 0.453940
vt 0.254698 0.457157
vt 0.254022 0.496780
vt 0.065343 0.493562
vt 0.253616 0.520590
vt 0.064936 0.517373
vt 0.252940 0.560226
vt 0.064261 0.557009
vt 0.066423 0.430193
vt 0.255103 0.433410
vt 0.277838 0.462506
vt 0.277224 0.502143
vt 0.042709 0.458497
vt 0.041971 0.498131
vt 0.696530 0.705203
vt 0.693056 0.946993
vt 0.688324 0.951236
vt 0.691922 0.700826
vt 0.676307 0.704912
vt 0.672833 0.946703
vt 0.449201 0.943490
vt 0.452675 0.701700
vt 0.927175 0.704206
vt 0.923577 0.954616
vt 0.920258 0.950257
vt 0.923731 0.708467
vt 0.919487 0.955682
vt 0.689684 0.952380
vt 0.693314 0.699721
vt 0.923117 0.703023
vt 0.687326 0.698353
vt 0.683660 0.953576
vt 0.678144 0.951159
vt 0.681743 0.700610
vt 0.450859 0.689825
vt 0.681568 0.693139
vt 0.679689 0.698861
vt 0.451875 0.695588
vt 0.448400 0.697258
vt 0.444801 0.947807
vt 0.439403 0.950067
vt 0.443070 0.694844
vt 0.677754 0.958623
vt 0.447046 0.955308
vt 0.448226 0.949576
vt 0.676040 0.952849
vt 0.691587 0.694797
vt 0.922296 0.698111
vt 0.931569 0.701862
vt 0.927902 0.957085
vt 0.918525 0.960568
vt 0.687817 0.957253
vt 0.481977 0.026811
vt 0.527653 0.026911
vt 0.527594 0.054461
vt 0.481917 0.054361
vt 0.526899 0.374187
vt 0.481222 0.374088
vt 0.526839 0.401970
vt 0.481162 0.401871
vt 0.453665 0.377620
vt 0.407988 0.377520
vt 0.408690 0.054202
vt 0.454367 0.054302
vt 0.555144 0.054520
vt 0.554441 0.377839
vt 0.611791 0.034045
vt 0.656080 0.034124
vt 0.656032 0.060836
vt 0.611744 0.060757
vt 0.655477 0.370844
vt 0.611189 0.370765
vt 0.655429 0.397783
vt 0.611141 0.397703
vt 0.726472 0.374453
vt 0.682184 0.374374
vt 0.682744 0.060884
vt 0.727033 0.060963
vt 0.584471 0.374199
vt 0.585031 0.060709
vn 0.000000 0.000000 1.000000
vn 0.000000 0.000000 1.000000
vn 0.000000 0.000000 1.000000
vn 0.000000 0.000000 1.000000
vn 0.000000 1.000000 0.000000
vn 0.000000 1.000000 0.000000
vn 0.000000 1.000000 0.000000
vn 0.000000 1.000000 0.000000
vn 0.000000 0.000000 -1.000000
vn 0.000000 0.000000 -1.000000
vn 0.000000 0.000000 -1.000000
vn 0.000000 0.000000 -1.000000
vn 0.000000 -1.000000 0.000000
vn 0.000000 -1.000000 0.000000
vn 0.000000 -1.000000 0.000000
vn 0.000000 -1.000000 0.000000
vn 1.000000 0.000000 0.000000
vn 1.000000 0.000000 0.000000
vn 1.000000 0.000000 0.000000
vn 1.000000 0.000000 0.000000
vn -1.000000 0.000000 0.000000
vn -1.000000 0.000000 0.000000
vn -1.000000 0.000000 0.000000
vn -1.000000 0.000000 0.000000
vn 0.000000 0.000000 1.000000
vn 0.000000 0.000000 1.000000
vn 0.000000 0.000000 1.000000
vn 0.000000 0.000000 1.000000
vn 0.000000 1.000000 0.000000
vn 0.000000 1.000000 0.000000
vn 0.000000 1.000000 0.000000
vn 0.000000 1.000000 0.000000
vn 0.000000 0.135252 -0.990811
vn 0.000000 0.135252 -0.990811
vn 0.000000 0.135252 -0.990811
vn 0.000000 0.135252 -0.990811
vn 0.000000 -1.000000 0.000000
vn 0.000000 -1.000000 0.000000
vn 0.000000 -1.000000 0.000000
vn 0.000000 -1.000000 0.000000
vn 1.000000 -0.000000 0.000000
vn 1.000000 -0.000000 0.000000
vn 1.000000 -0.000000 0.000000
vn 1.000000 -0.000000 0.000000
vn -1.000000 0.000000 0.000000
vn -1.000000 0.000000 0.000000
vn -1.000000 0.000000 0.000000
vn -1.000000 0.000000 0.000000
vn 0.000000 -0.129820 0.991538
vn 0.000000 -0.129820 0.991538
vn 0.000000 -0.130333 0.991470
vn 0.000000 -0.130333 0.991470
vn 0.000000 0.983070 -0.183229
vn 0.000000 0.983070 -0.183229
vn 0.000000 0.983070 -0.183229
vn 0.000000 0.983070 -0.183229
vn 0.000000 0.130334 -0.991470
vn 0.000000 0.130334 -0.991470
vn 0.000000 0.129820 -0.991538
vn 0.000000 0.129820 -0.991538
vn 0.000000 -1.000000 0.000000
vn 0.000000 -1.000000 0.000000
vn 0.000000 -1.000000 0.000000
vn 0.000000 -1.000000 0.000000
vn 1.000000 0.000000 -0.000001
vn 1.000000 0.000000 -0.000001
vn 1.000000 0.000000 -0.000001
vn 1.000000 0.000000 -0.000001
vn -1.000000 -0.000000 0.000000
vn -1.000000 -0.000000 0.000000
vn -1.000000 -0.000000 0.000000
vn -1.000000 -0.000000 0.000000
vn 0.000000 0.187384 0.982287
vn 0.000000 0.187384 0.982287
vn 1.000000 -0.000000 -0.000001
vn 1.000000 -0.000000 -0.000001
vn 0.000000 -0.188551 -0.982063
vn 0.000000 -0.188551 -0.982063
vn -1.000000 0.000000 0.000000
vn -1.000000 0.000000 0.000000
vn 0.000000 0.216890 0.976196
vn 0.000000 0.216890 0.976196
vn 1.000000 -0.000000 -0.000001
vn 1.000000 -0.000000 -0.000001
vn 0.000000 -0.218549 -0.975826
vn 0.000000 -0.218549 -0.975826
vn -1.000000 0.000000 0.000000
vn -1.000000 0.000000 0.000000
vn 0.000000 0.202562 0.979270
vn 0.000000 0.202562 0.979270
vn 0.000000 0.202562 0.979270
vn 0.000000 0.202562 0.979270
vn 0.000000 1.000000 0.000000
vn 0.000000 1.000000 0.000000
vn 0.000000 1.000000 0.000000
vn 0.000000 1.000000 0.000000
vn 0.000000 -0.212751 -0.977106
vn 0.000000 -0.212751 -0.977106
vn 0.000000 -0.212751 -0.977106
vn 0.000000 -0.212751 -0.977106
vn 0.000000 -1.000000 0.000000
vn 0.000000 -1.000000 0.000000
vn 0.000000 -1.000000 0.000000
vn 0.000000 -1.000000 0.000000
vn 1.000000 -0.000000 0.000000
vn 1.000000 -0.000000 0.000000
vn 1.000000 -0.000000 0.000000
vn 1.000000 -0.000000 0.000000
vn -1.000000 -0.000000 0.000000
vn -1.000000 -0.000000 0.000000
vn -1.000000 -0.000000 0.000000
vn -1.000000 -0.000000 0.000000
vn 0.000000 -0.129820 0.991538
vn 0.000000 -0.129820 0.991538
vn 0.000000 -0.130333 0.991470
vn 0.000000 -0.130333 0.991470
vn 0.000000 0.983070 -0.183230
vn 0.000000 0.983070 -0.183230
vn 0.000000 0.983070 -0.183230
vn 0.000000 0.983070 -0.183230
vn 0.000000 0.130334 -0.991470
vn 0.000000 0.130334 -0.991470
vn 0.000000 0.129820 -0.991538
vn 0.000000 0.129820 -0.991538
vn 0.000000 -1.000000 0.000000
vn 0.000000 -1.000000 0.000000
vn 0.000000 -1.000000 0.000000
vn 0.000000 -1.000000 0.000000
vn 1.000000 0.000000 -0.000001
vn 1.000000 0.000000 -0.000001
vn 1.000000 0.000000 -0.000001
vn 1.000000 0.000000 -0.000001
vn -1.000000 -0.000000 0.000001
vn -1.000000 -0.000000 0.000001
vn -1.000000 -0.000000 0.000001
vn -1.000000 -0.000000 0.000001
vn 0.000000 0.187384 0.982287
vn 0.000000 0.187384 0.982287
vn 1.000000 -0.000000 -0.000001
vn 1.000000 -0.000000 -0.000001
vn 0.000000 -0.188551 -0.982063
vn 0.000000 -0.188551 -0.982063
vn -1.000000 0.000000 0.000001
vn -1.000000 0.000000 0.000001
vn 0.000000 0.216890 0.976196
vn 0.000000 0.216890 0.976196
vn 1.000000 -0.000000 -0.000001
vn 1.000000 -0.000000 -0.000001
vn 0.000000 -0.218549 -0.975826
vn 0.000000 -0.218549 -0.975826
vn -1.000000 0.000000 0.000001
vn -1.000000 0.000000 0.000001
vn 0.000000 0.000000 1.000000
vn 0.000000 0.000000 1.000000
vn 0.000000 0.000000 1.000000
vn 0.000000 0.000000 1.000000
vn 0.000000 1.000000 0.000000
vn 0.000000 1.000000 0.000000
vn 0.000000 1.000000 0.000000
vn 0.000000 1.000000 0.000000
vn 0.000000 0.000000 -1.000000
vn 0.000000 0.000000 -1.000000
vn 0.000000 0.000000 -1.000000
vn 0.000000 0.000000 -1.000000
vn 0.000000 -1.000000 0.000000
vn 0.000000 -1.000000 0.000000
vn 0.000000 -1.000000 0.000000
vn 0.000000 -1.000000 0.000000
vn 1.000000 0.000000 0.000000
vn 1.000000 0.000000 0.000000
vn 1.000000 0.000000 0.000000
vn 1.000000 0.000000 0.000000
vn -1.000000 0.000000 0.000000
vn -1.000000 0.000000 0.000000
vn -1.000000 0.000000 0.000000
vn -1.000000 0.000000 0.000000
vn 0.000000 0.208569 0.978008
vn 0.000000 0.208569 0.978008
vn 0.000000 0.208569 0.978008
vn 0.000000 0.208569 0.978008
vn 0.000000 1.000000 0.000000
vn 0.000000 1.000000 0.000000
vn 0.000000 1.000000 0.000000
vn 0.000000 1.000000 0.000000
vn 0.000000 -0.210103 -0.977679
vn 0.000000 -0.210103 -0.977679
vn 0.000000 -0.210103 -0.977679
vn 0.000000 -0.210103 -0.977679
vn 0.000000 -1.000000 0.000000
vn 0.000000 -1.000000 0.000000
vn 0.000000 -1.000000 0.000000
vn 0.000000 -1.000000 0.000000
vn 1.000000 0.000000 0.000000
vn 1.000000 0.000000 0.000000
vn 1.000000 0.000000 0.000000
vn 1.000000 0.000000 0.000000
vn -1.000000 0.000000 0.000000
vn -1.000000 0.000000 0.000000
vn -1.000000 0.000000 0.000000
vn -1.000000 0.000000 0.000000
vn 0.000000 -0.705400 0.708810
vn 0.000000 -0.705400 0.708810
vn 0.000000 -0.485213 0.874396
vn 0.000000 -0.485213 0.874396
vn 0.000000 1.000000 0.000000
vn 0.000000 1.000000 0.000000
vn 0.000000 1.000000 0.000000
vn 0.000000 1.000000 0.000000
vn 0.000000 0.204627 -0.978840
vn 0.000000 0.204627 -0.978840
vn 0.000000 0.204632 -0.978839
vn 0.000000 0.204632 -0.978839
vn 0.000000 -1.000000 0.000000
vn 0.000000 -1.000000 0.000000
vn 0.000000 -1.000000 0.000000
vn 0.000000 -1.000000 0.000000
vn 0.609099 -0.793094 0.000000
vn 0.609099 -0.793094 0.000000
vn 0.735370 -0.677666 0.000000
vn 0.788925 -0.614490 0.000000
vn -0.609097 -0.793095 0.000000
vn -0.609097 -0.793095 0.000000
vn -0.788924 -0.614491 0.000000
vn -0.735369 -0.677667 0.000000
vn 0.000000 0.013469 0.999909
vn 0.000000 0.013469 0.999909
vn 0.000000 0.414671 0.909971
vn 0.000000 0.414671 0.909971
vn -0.997705 -0.067716 0.000000
vn -0.999999 0.001352 0.000000
vn -0.846461 0.532450 0.000000
vn -0.828807 0.559535 0.000000
vn 0.000000 0.204632 -0.978839
vn 0.000000 0.204632 -0.978839
vn 0.000000 0.204629 -0.978840
vn 0.000000 0.204629 -0.978840
vn 0.999999 0.001352 0.000000
vn 0.997705 -0.067716 0.000000
vn 0.828807 0.559534 0.000000
vn 0.846462 0.532450 0.000000
vn 0.000000 0.613032 0.790058
vn 0.000000 0.613032 0.790058
vn -0.696037 0.718006 0.000000
vn -0.696036 0.718006 0.000000
vn 0.000000 0.204632 -0.978839
vn 0.000000 0.204632 -0.978839
vn 0.696038 0.718005 0.000000
vn 0.696038 0.718005 0.000000
vn 0.000000 0.000000 1.000000
vn 0.000000 0.000000 1.000000
vn 0.000000 0.000000 1.000000
vn 0.000000 0.000000 1.000000
vn 0.000000 1.000000 0.000000
vn 0.000000 1.000000 0.000000
vn 0.000000 1.000000 0.000000
vn 0.000000 1.000000 0.000000
vn 0.000000 0.129261 -0.991611
vn 0.000000 0.129261 -0.991611
vn 0.000000 0.129261 -0.991611
vn 0.000000 0.129261 -0.991611
vn 0.000000 -1.000000 -0.000000
vn 0.000000 -1.000000 -0.000000
vn 0.000000 -1.000000 -0.000000
vn 0.000000 -1.000000 -0.000000
vn 1.000000 0.000000 0.000000
vn 1.000000 0.000000 0.000000
vn 1.000000 0.000000 0.000000
vn 1.000000 0.000000 0.000000
vn -1.000000 0.000000 0.000000
vn -1.000000 0.000000 0.000000
vn -1.000000 0.000000 0.000000
vn -1.000000 0.000000 0.000000
vn 0.000000 0.000000 1.000000
vn 0.000000 0.000000 1.000000
vn 0.000000 0.000000 1.000000
vn 0.000000 0.000000 1.000000
vn 0.000000 1.000000 0.000000
vn 0.000000 1.000000 0.000000
vn 0.000000 1.000000 0.000000
vn 0.000000 1.000000 0.000000
vn 0.000000 0.129261 -0.991611
vn 0.000000 0.129261 -0.991611
vn 0.000000 0.129261 -0.991611
vn 0.000000 0.129261 -0.991611
vn 0.000000 -1.000000 -0.000000
vn 0.000000 -1.000000 -0.000000
vn 0.000000 -1.000000 -0.000000
vn 0.000000 -1.000000 -0.000000
vn 1.000000 0.000000 0.000000
vn 1.000000 0.000000 0.000000
vn 1.000000 0.000000 0.000000
vn 1.000000 0.000000 0.000000
vn -1.000000 -0.000000 0.000000
vn -1.000000 -0.000000 0.000000
vn -1.000000 -0.000000 0.000000
vn -1.000000 -0.000000 0.000000
s off
g Chair_Model
usemtl lambert3SG
f 1/1/1 2/2/2 4/3/3 3/4/4
f 3/4/5 4/3/6 6/12/7 5/14/8
f 5/6/9 6/13/10 8/9/11 7/11/12
f 7/8/13 8/10/14 2/2/15 1/1/16
f 2/2/17 8/7/18 6/5/19 4/3/20
f 7/11/21 1/1/22 3/4/23 5/6/24
f 9/15/25 10/16/26 12/17/27 11/18/28
usemtl initialShadingGroup
f 11//29 12//30 14//31 13//32
usemtl lambert3SG
f 13/19/33 14/20/34 16/21/35 15/22/36
f 15/22/37 16/21/38 10/16/39 9/15/40
f 10/16/41 16/21/42 14/23/43 12/24/44
f 15/22/45 9/15/46 11/25/47 13/26/48
s 1
f 17/27/49 18/28/50 20/29/51 19/30/52
s off
f 29/31/53 30/32/54 31/33/55 32/34/56
s 2
f 21/35/57 22/36/58 24/37/59 23/38/60
s off
f 23/39/61 24/40/62 18/28/63 17/27/64
s 3
f 18/28/65 24/37/66 22/36/67 20/29/68
s 4
f 23/41/69 17/27/70 19/30/71 21/42/72
s 1
f 19/30/52 20/29/51 26/43/73 25/44/74
s 3
f 20/29/68 22/36/67 27/45/75 26/43/76
s 2
f 22/36/58 21/35/57 28/46/77 27/45/78
s 4
f 21/42/72 19/30/71 25/44/79 28/47/80
s 1
f 25/44/74 26/43/73 30/32/81 29/31/82
s 3
f 26/43/76 27/45/75 31/48/83 30/32/84
s 2
f 27/45/78 28/46/77 32/49/85 31/48/86
s 4
f 28/47/80 25/44/79 29/31/87 32/50/88
s off
f 33/51/89 34/52/90 36/53/91 35/54/92
f 35/54/93 36/53/94 38/55/95 37/56/96
f 37/56/97 38/55/98 40/57/99 39/58/100
f 39/59/101 40/60/102 34/52/103 33/51/104
f 34/52/105 40/61/106 38/62/107 36/53/108
f 39/63/109 33/51/110 35/54/111 37/64/112
s 5
f 41/65/113 42/66/114 44/67/115 43/68/116
s off
f 53/69/117 54/70/118 55/71/119 56/72/120
s 6
f 45/73/121 46/74/122 48/75/123 47/76/124
s off
f 47/77/125 48/78/126 42/66/127 41/65/128
s 7
f 42/66/129 48/75/130 46/74/131 44/67/132
s 8
f 47/79/133 41/65/134 43/68/135 45/80/136
s 5
f 43/68/116 44/67/115 50/81/137 49/82/138
s 7
f 44/67/132 46/74/131 51/83/139 50/81/140
s 6
f 46/74/122 45/73/121 52/84/141 51/83/142
s 8
f 45/80/136 43/68/135 49/82/143 52/85/144
s 5
f 49/82/138 50/81/137 54/70/145 53/69/146
s 7
f 50/81/140 51/83/139 55/86/147 54/70/148
s 6
f 51/83/142 52/84/141 56/87/149 55/86/150
s 8
f 52/85/144 49/82/143 53/69/151 56/88/152
s off
f 57/89/153 58/90/154 60/91/155 59/92/156
f 59/92/157 60/91/158 62/93/159 61/94/160
f 61/95/161 62/96/162 64/97/163 63/98/164
f 63/99/165 64/100/166 58/90/167 57/89/168
f 58/90/169 64/101/170 62/102/171 60/91/172
f 63/98/173 57/89/174 59/92/175 61/95/176
f 65/103/177 66/104/178 68/105/179 67/106/180
f 67/106/181 68/105/182 70/107/183 69/108/184
f 69/108/185 70/107/186 72/109/187 71/110/188
f 71/111/189 72/112/190 66/104/191 65/103/192
f 66/104/193 72/113/194 70/114/195 68/105/196
f 71/115/197 65/103/198 67/106/199 69/116/200
s 9
usemtl lambert2SG
f 73/117/201 74/118/202 89/119/203 90/120/204
s off
f 75/121/205 76/122/206 78/123/207 77/124/208
s 10
f 91/125/209 92/126/210 80/127/211 79/128/212
s off
f 79/128/213 80/127/214 74/118/215 73/117/216
s 11
f 74/118/217 80/127/218 92/129/219 89/130/220
s 12
f 79/128/221 73/117/222 90/131/223 91/132/224
s 9
f 82/133/225 81/134/226 85/135/227 86/136/228
s 12
f 83/137/229 82/138/230 86/139/231 87/140/232
s 10
f 87/141/233 88/142/234 84/143/235 83/144/236
s 11
f 81/145/237 84/146/238 88/147/239 85/148/240
s 9
f 86/136/228 85/135/227 76/122/241 75/121/242
s 12
f 87/140/232 86/139/231 75/121/243 77/124/244
s 10
f 77/124/245 78/123/246 88/142/234 87/141/233
s 11
f 85/148/240 88/147/239 78/123/247 76/122/248
s 9
f 90/120/204 89/119/203 81/134/226 82/133/225
s 12
f 91/132/224 90/131/223 82/149/230 83/150/229
s 10
f 83/151/236 84/152/235 92/126/210 91/125/209
s 11
f 89/130/220 92/129/219 84/153/238 81/154/237
s off
usemtl lambert3SG
f 93/155/249 94/156/250 96/157/251 95/158/252
f 95/158/253 96/157/254 98/159/255 97/160/256
f 97/160/257 98/159/258 100/161/259 99/162/260
f 99/163/261 100/164/262 94/165/263 93/166/264
f 94/167/265 100/168/266 98/159/267 96/157/268
f 99/163/269 93/166/270 95/158/271 97/160/272
f 101/169/273 102/170/274 104/171/275 103/172/276
f 103/172/277 104/171/278 106/173/279 105/174/280
f 105/174/281 106/173/282 108/175/283 107/176/284
f 107/177/285 108/178/286 102/179/287 101/180/288
f 102/179/289 108/178/290 106/173/291 104/171/292
f 107/181/293 101/182/294 103/172/295 105/174/296
