# This file uses inches as units for non-parametric coordinates.

mtllib Texture_Table.mtl
g default
v 14.326969 -0.126535 -7.143718
v 16.979858 -0.126535 -7.143718
v 14.326969 25.968790 -7.143717
v 16.979858 25.968790 -7.143717
v 14.326969 25.968790 -9.683718
v 16.979858 25.968790 -9.683718
v 14.326969 -0.126535 -9.683718
v 16.979858 -0.126535 -9.683718
v -16.803297 -0.126535 9.490299
v -14.150410 -0.126535 9.490299
v -16.803297 25.968790 9.490301
v -14.150410 25.968790 9.490301
v -16.803297 25.968790 6.950301
v -14.150410 25.968790 6.950301
v -16.803297 -0.126535 6.950300
v -14.150410 -0.126535 6.950300
v -19.782036 25.968788 11.832052
v 19.782036 25.968788 11.832052
v -19.782036 27.478159 11.832052
v 19.782036 27.478159 11.832052
v -19.782036 27.478159 -12.296431
v 19.782036 27.478159 -12.296431
v -19.782036 25.968788 -12.296431
v 19.782036 25.968788 -12.296431
v 14.326969 -0.126535 9.490299
v 16.979858 -0.126535 9.490299
v 14.326969 25.968790 9.490301
v 16.979858 25.968790 9.490301
v 14.326969 25.968790 6.950301
v 16.979858 25.968790 6.950301
v 14.326969 -0.126535 6.950300
v 16.979858 -0.126535 6.950300
v -16.803297 -0.126535 -7.143718
v -14.150410 -0.126535 -7.143718
v -16.803297 25.968790 -7.143717
v -14.150410 25.968790 -7.143717
v -16.803297 25.968790 -9.683718
v -14.150410 25.968790 -9.683718
v -16.803297 -0.126535 -9.683718
v -14.150410 -0.126535 -9.683718
v -16.564377 21.971741 9.388693
v 16.564377 21.971741 9.388693
v -16.564377 25.962875 9.388693
v 16.564377 25.962875 9.388693
v -16.564377 25.962875 -9.853069
v 16.564377 25.962875 -9.853069
v -16.564377 21.971741 -9.853069
v 16.564377 21.971741 -9.853069
v -17.826460 21.971741 10.650774
v 17.826460 21.971741 10.650774
v 17.826460 25.962875 10.650774
v -17.826460 25.962875 10.650774
v -17.826460 25.962875 -11.115152
v 17.826460 25.962875 -11.115152
v 17.826460 21.971741 -11.115152
v -17.826460 21.971741 -11.115152
v -16.564377 25.591028 -9.853069
v 16.564377 25.591028 -9.853069
v 16.564377 25.591028 9.388693
v -16.564377 25.591028 9.388693
vt 0.379064 0.087338
vt 0.306556 0.087117
vt 0.305812 0.331801
vt 0.305737 0.356675
vt 0.329628 0.331873
vt 0.354503 0.331949
vt 0.330373 0.087190
vt 0.330448 0.062315
vt 0.355247 0.087266
vt 0.281681 0.087042
vt 0.306632 0.062243
vt 0.280937 0.331725
vt 0.378320 0.332021
vt 0.329553 0.356748
vt 0.454154 0.085870
vt 0.478792 0.085778
vt 0.479697 0.328130
vt 0.455059 0.328222
vt 0.455151 0.352860
vt 0.431562 0.352948
vt 0.431470 0.328310
vt 0.406832 0.328402
vt 0.405926 0.086050
vt 0.430564 0.085958
vt 0.430472 0.061320
vt 0.454062 0.061232
vt 0.502381 0.085690
vt 0.503287 0.328042
vt 0.052163 0.697694
vt 0.457504 0.697156
vt 0.457525 0.712620
vt 0.052184 0.713158
vt 0.457852 0.959821
vt 0.052512 0.960358
vt 0.457873 0.975285
vt 0.052532 0.975822
vt 0.938088 0.655131
vt 0.553098 0.655131
vt 0.553098 0.387685
vt 0.938088 0.387685
vt 0.472989 0.712600
vt 0.473316 0.959800
vt 0.037048 0.960379
vt 0.036720 0.713178
vt 0.068064 0.080874
vt 0.093685 0.080673
vt 0.095666 0.332692
vt 0.070046 0.332894
vt 0.095859 0.357223
vt 0.070239 0.357424
vt 0.145817 0.332298
vt 0.120197 0.332500
vt 0.118215 0.080480
vt 0.143836 0.080279
vt 0.067871 0.056344
vt 0.093492 0.056143
vt 0.043534 0.081067
vt 0.045515 0.333087
vt 0.213785 0.080091
vt 0.239523 0.080178
vt 0.238667 0.333352
vt 0.212929 0.333265
vt 0.212842 0.359003
vt 0.188199 0.358920
vt 0.188286 0.333182
vt 0.162548 0.333095
vt 0.163404 0.079920
vt 0.189142 0.080007
vt 0.189229 0.054269
vt 0.213872 0.054353
vt 0.264166 0.080261
vt 0.263310 0.333435
vt 0.066952 0.381014
vt 0.412996 0.377274
vt 0.413414 0.416011
vt 0.067370 0.419752
vt 0.079752 0.431869
vt 0.401297 0.428393
vt 0.403316 0.615152
vt 0.081771 0.618628
vt 0.069654 0.631010
vt 0.415698 0.627270
vt 0.416117 0.666007
vt 0.070073 0.669748
vt 0.925573 0.938081
vt 0.581163 0.932586
vt 0.585455 0.732270
vt 0.929502 0.737148
vt 0.452152 0.415593
vt 0.454436 0.626851
vt 0.030916 0.631429
vt 0.028633 0.420171
vt 0.952869 0.708320
vt 0.559547 0.706276
vt 0.544024 0.691160
vt 0.967855 0.693792
vt 0.557869 0.961414
vt 0.951571 0.964164
vt 0.966146 0.978827
vt 0.542922 0.975944
vn 0.000000 -0.000000 1.000000
vn 0.000000 -0.000000 1.000000
vn 0.000000 -0.000000 1.000000
vn 0.000000 -0.000000 1.000000
vn 0.000000 1.000000 0.000000
vn 0.000000 1.000000 0.000000
vn 0.000000 1.000000 0.000000
vn 0.000000 1.000000 0.000000
vn 0.000000 0.000000 -1.000000
vn 0.000000 0.000000 -1.000000
vn 0.000000 0.000000 -1.000000
vn 0.000000 0.000000 -1.000000
vn 0.000000 -1.000000 0.000000
vn 0.000000 -1.000000 0.000000
vn 0.000000 -1.000000 0.000000
vn 0.000000 -1.000000 0.000000
vn 1.000000 -0.000000 0.000000
vn 1.000000 -0.000000 0.000000
vn 1.000000 -0.000000 0.000000
vn 1.000000 -0.000000 0.000000
vn -1.000000 -0.000000 0.000000
vn -1.000000 -0.000000 0.000000
vn -1.000000 -0.000000 0.000000
vn -1.000000 -0.000000 0.000000
vn 0.000000 -0.000000 1.000000
vn 0.000000 -0.000000 1.000000
vn 0.000000 -0.000000 1.000000
vn 0.000000 -0.000000 1.000000
vn 0.000000 1.000000 0.000000
vn 0.000000 1.000000 0.000000
vn 0.000000 1.000000 0.000000
vn 0.000000 1.000000 0.000000
vn 0.000000 0.000000 -1.000000
vn 0.000000 0.000000 -1.000000
vn 0.000000 0.000000 -1.000000
vn 0.000000 0.000000 -1.000000
vn 0.000000 -1.000000 0.000000
vn 0.000000 -1.000000 0.000000
vn 0.000000 -1.000000 0.000000
vn 0.000000 -1.000000 0.000000
vn 1.000000 0.000000 0.000000
vn 1.000000 0.000000 0.000000
vn 1.000000 0.000000 0.000000
vn 1.000000 0.000000 0.000000
vn -1.000000 -0.000000 0.000000
vn -1.000000 -0.000000 0.000000
vn -1.000000 -0.000000 0.000000
vn -1.000000 -0.000000 0.000000
vn 0.000000 0.000000 1.000000
vn 0.000000 0.000000 1.000000
vn 0.000000 0.000000 1.000000
vn 0.000000 0.000000 1.000000
vn 0.000000 1.000000 0.000000
vn 0.000000 1.000000 0.000000
vn 0.000000 1.000000 0.000000
vn 0.000000 1.000000 0.000000
vn 0.000000 0.000000 -1.000000
vn 0.000000 0.000000 -1.000000
vn 0.000000 0.000000 -1.000000
vn 0.000000 0.000000 -1.000000
vn 0.000000 -1.000000 0.000000
vn 0.000000 -1.000000 0.000000
vn 0.000000 -1.000000 0.000000
vn 0.000000 -1.000000 0.000000
vn 1.000000 0.000000 0.000000
vn 1.000000 0.000000 0.000000
vn 1.000000 0.000000 0.000000
vn 1.000000 0.000000 0.000000
vn -1.000000 0.000000 0.000000
vn -1.000000 0.000000 0.000000
vn -1.000000 0.000000 0.000000
vn -1.000000 0.000000 0.000000
vn 0.000000 -0.000000 1.000000
vn 0.000000 -0.000000 1.000000
vn 0.000000 -0.000000 1.000000
vn 0.000000 -0.000000 1.000000
vn 0.000000 1.000000 0.000000
vn 0.000000 1.000000 0.000000
vn 0.000000 1.000000 0.000000
vn 0.000000 1.000000 0.000000
vn 0.000000 0.000000 -1.000000
vn 0.000000 0.000000 -1.000000
vn 0.000000 0.000000 -1.000000
vn 0.000000 0.000000 -1.000000
vn 0.000000 -1.000000 0.000000
vn 0.000000 -1.000000 0.000000
vn 0.000000 -1.000000 0.000000
vn 0.000000 -1.000000 0.000000
vn 1.000000 -0.000000 0.000000
vn 1.000000 -0.000000 0.000000
vn 1.000000 -0.000000 0.000000
vn 1.000000 -0.000000 0.000000
vn -1.000000 -0.000000 0.000000
vn -1.000000 -0.000000 0.000000
vn -1.000000 -0.000000 0.000000
vn -1.000000 -0.000000 0.000000
vn 0.000000 -0.000000 1.000000
vn 0.000000 -0.000000 1.000000
vn 0.000000 -0.000000 1.000000
vn 0.000000 -0.000000 1.000000
vn 0.000000 1.000000 0.000000
vn 0.000000 1.000000 0.000000
vn 0.000000 1.000000 0.000000
vn 0.000000 1.000000 0.000000
vn 0.000000 0.000000 -1.000000
vn 0.000000 0.000000 -1.000000
vn 0.000000 0.000000 -1.000000
vn 0.000000 0.000000 -1.000000
vn 0.000000 -1.000000 0.000000
vn 0.000000 -1.000000 0.000000
vn 0.000000 -1.000000 0.000000
vn 0.000000 -1.000000 0.000000
vn 1.000000 0.000000 0.000000
vn 1.000000 0.000000 0.000000
vn 1.000000 0.000000 0.000000
vn 1.000000 0.000000 0.000000
vn -1.000000 0.000000 0.000000
vn -1.000000 0.000000 0.000000
vn -1.000000 0.000000 0.000000
vn -1.000000 0.000000 0.000000
vn 0.000000 0.000000 1.000000
vn 0.000000 0.000000 1.000000
vn 0.000000 0.000000 1.000000
vn 0.000000 0.000000 1.000000
vn 0.000000 1.000000 0.000000
vn 0.000000 1.000000 0.000000
vn 0.000000 1.000000 -0.000000
vn 0.000000 1.000000 -0.000000
vn 0.000000 0.000000 -1.000000
vn 0.000000 0.000000 -1.000000
vn 0.000000 0.000000 -1.000000
vn 0.000000 0.000000 -1.000000
vn 0.000000 -1.000000 0.000000
vn 0.000000 -1.000000 0.000000
vn 0.000000 -1.000000 0.000000
vn 0.000000 -1.000000 0.000000
vn 1.000000 0.000000 0.000000
vn 1.000000 0.000000 0.000000
vn 1.000000 0.000000 0.000000
vn 1.000000 0.000000 0.000000
vn -1.000000 0.000000 0.000000
vn -1.000000 0.000000 0.000000
vn -1.000000 0.000000 0.000000
vn -1.000000 0.000000 0.000000
vn 0.000000 -1.000000 0.000000
vn 0.000000 -1.000000 0.000000
vn 0.000000 -1.000000 0.000000
vn 0.000000 -1.000000 0.000000
vn 0.000000 1.000000 0.000000
vn 0.000000 1.000000 0.000000
vn 0.000000 1.000000 -0.000000
vn 0.000000 1.000000 -0.000000
vn 0.000000 -1.000000 -0.000000
vn 0.000000 -1.000000 -0.000000
vn 0.000000 -1.000000 -0.000000
vn 0.000000 -1.000000 -0.000000
vn 0.000000 0.000000 1.000000
vn 0.000000 0.000000 1.000000
vn 0.000000 0.000000 1.000000
vn 0.000000 0.000000 1.000000
vn -1.000000 0.000000 0.000000
vn -1.000000 0.000000 0.000000
vn -1.000000 0.000000 0.000000
vn -1.000000 0.000000 0.000000
vn 0.000000 0.000000 -1.000000
vn 0.000000 0.000000 -1.000000
vn 0.000000 0.000000 -1.000000
vn 0.000000 0.000000 -1.000000
vn 1.000000 0.000000 0.000000
vn 1.000000 0.000000 0.000000
vn 1.000000 0.000000 0.000000
vn 1.000000 0.000000 0.000000
s off
g Table_Model
usemtl lambert2SG
f 1/10/1 2/2/2 4/3/3 3/12/4
f 3/4/5 4/3/6 6/5/7 5/14/8
f 5/6/9 6/5/10 8/7/11 7/9/12
f 7/8/13 8/7/14 2/2/15 1/11/16
f 2/2/17 8/7/18 6/5/19 4/3/20
f 7/9/21 1/1/22 3/13/23 5/6/24
f 9/15/25 10/16/26 12/17/27 11/18/28
f 11/18/29 12/19/30 14/20/31 13/21/32
f 13/21/33 14/22/34 16/23/35 15/24/36
f 15/24/37 16/25/38 10/26/39 9/15/40
f 10/16/41 16/27/42 14/28/43 12/17/44
f 15/24/45 9/15/46 11/18/47 13/21/48
f 17/29/49 18/30/50 20/31/51 19/32/52
f 19/32/53 20/31/54 22/33/55 21/34/56
f 21/34/57 22/33/58 24/35/59 23/36/60
f 23/37/61 24/38/62 18/39/63 17/40/64
f 18/41/65 24/42/66 22/33/67 20/31/68
f 23/43/69 17/44/70 19/32/71 21/34/72
f 25/45/73 26/46/74 28/47/75 27/48/76
f 27/48/77 28/47/78 30/49/79 29/50/80
f 29/51/81 30/52/82 32/53/83 31/54/84
f 31/55/85 32/56/86 26/46/87 25/45/88
f 26/46/89 32/53/90 30/52/91 28/47/92
f 31/57/93 25/45/94 27/48/95 29/58/96
f 33/59/97 34/60/98 36/61/99 35/62/100
f 35/62/101 36/63/102 38/64/103 37/65/104
f 37/65/105 38/66/106 40/67/107 39/68/108
f 39/68/109 40/69/110 34/70/111 33/59/112
f 34/60/113 40/71/114 38/72/115 36/61/116
f 39/68/117 33/59/118 35/62/119 37/65/120
f 49/73/121 50/74/122 51/75/123 52/76/124
s 1
f 43/77/125 44/78/126 46/79/127 45/80/128
s off
f 53/81/129 54/82/130 55/83/131 56/84/132
f 57/85/133 58/86/134 59/87/135 60/88/136
f 50/89/137 55/90/138 54/82/139 51/75/140
f 56/91/141 49/92/142 52/76/143 53/81/144
s 2
f 41/93/145 42/94/146 50/95/147 49/96/148
s 1
f 44/78/126 43/77/125 52/76/149 51/75/150
f 45/80/128 46/79/127 54/82/151 53/81/152
s 2
f 48/97/153 47/98/154 56/99/155 55/100/156
f 42/94/146 48/97/153 55/100/156 50/95/147
s 1
f 46/79/127 44/78/126 51/75/150 54/82/151
s 2
f 47/98/154 41/93/145 49/96/148 56/99/155
s 1
f 43/77/125 45/80/128 53/81/152 52/76/149
s off
f 47/98/157 48/97/158 58/86/159 57/85/160
f 48/97/161 42/94/162 59/87/163 58/86/164
f 42/94/165 41/93/166 60/88/167 59/87/168
f 41/93/169 47/98/170 57/85/171 60/88/172
